<svg width="42" height="42" viewBox="0 0 42 42" fill="none" xmlns="http://www.w3.org/2000/svg">
<path fill-rule="evenodd" clip-rule="evenodd" d="M20.6 0.600006C9.5616 0.600006 0.599976 9.56163 0.599976 20.5993C0.599976 31.6376 9.5616 40.5993 20.6 40.5993C31.6384 40.5993 40.6 31.6376 40.6 20.5993C40.6 9.56163 31.6384 0.600006 20.6 0.600006ZM20.6 2.33363C30.6813 2.33363 38.8665 10.5188 38.8665 20.5994C38.8665 30.6808 30.6813 38.8659 20.6 38.8659C10.5186 38.8659 2.33345 30.6808 2.33345 20.5994C2.33345 10.5188 10.5186 2.33363 20.6 2.33363Z" fill="#BC8AFC" stroke="#BC8AFC" stroke-width="1.2"/>
<path fill-rule="evenodd" clip-rule="evenodd" d="M10.7928 21.212L16.9224 27.3417C17.2606 27.6801 17.81 27.6801 18.1481 27.3417L30.4073 15.0825C30.7457 14.7441 30.7457 14.195 30.4073 13.8565C30.0691 13.5184 29.5197 13.5184 29.1816 13.8565L17.5354 25.5027L12.0188 19.986C11.6803 19.6479 11.1312 19.6479 10.7928 19.986C10.4543 20.3245 10.4543 20.8736 10.7928 21.212Z" fill="#BC8AFC" stroke="#BC8AFC" stroke-width="1.2"/>
</svg>
